<svg width="24" height="24" viewBox="0 0 24 24" fill="none" xmlns="http://www.w3.org/2000/svg">
<path d="M9 17H6C5.34339 17 4.69321 16.8707 4.08658 16.6194C3.47995 16.3681 2.92876 15.9998 2.46447 15.5355C1.52678 14.5979 1 13.3261 1 12C1 10.6739 1.52678 9.40215 2.46447 8.46447C3.40215 7.52678 4.67392 7 6 7H9M15 17H18C18.6566 17 19.3068 16.8707 19.9134 16.6194C20.52 16.3681 21.0712 15.9998 21.5355 15.5355C22.4732 14.5979 23 13.3261 23 12C23 10.6739 22.4732 9.40215 21.5355 8.46447C20.5979 7.52678 19.3261 7 18 7H15M8 12H16" stroke="#222222" stroke-width="2" stroke-linecap="round" stroke-linejoin="round"/>
</svg>
