<svg width="24" height="24" viewBox="0 0 24 24" fill="none" xmlns="http://www.w3.org/2000/svg">
<path d="M12 7C11.4 7 11 6.6 11 6V2C11 1.4 11.4 1 12 1C12.6 1 13 1.4 13 2V6C13 6.6 12.6 7 12 7ZM13 22V18C13 17.4 12.6 17 12 17C11.4 17 11 17.4 11 18V22C11 22.6 11.4 23 12 23C12.6 23 13 22.6 13 22ZM8.5 8.5C8.9 8.1 8.9 7.5 8.5 7.1L5.6 4.2C5.2 3.8 4.6 3.8 4.2 4.2C3.8 4.6 3.8 5.2 4.2 5.6L7 8.4C7.2 8.6 7.5 8.7 7.7 8.7C7.9 8.7 8.3 8.7 8.5 8.5ZM19.8 19.8C20.2 19.4 20.2 18.8 19.8 18.4L17 15.6C16.6 15.2 16 15.2 15.6 15.6C15.2 16 15.2 16.6 15.6 17L18.4 19.8C18.6 20 18.9 20.1 19.1 20.1C19.3 20.1 19.6 20 19.8 19.8ZM7 12C7 11.4 6.6 11 6 11H2C1.4 11 1 11.4 1 12C1 12.6 1.4 13 2 13H6C6.6 13 7 12.6 7 12ZM23 12C23 11.4 22.6 11 22 11H18C17.4 11 17 11.4 17 12C17 12.6 17.4 13 18 13H22C22.6 13 23 12.6 23 12ZM5.6 19.8L8.4 17C8.8 16.6 8.8 16 8.4 15.6C8 15.2 7.4 15.2 7 15.6L4.2 18.4C3.8 18.8 3.8 19.4 4.2 19.8C4.4 20 4.7 20.1 4.9 20.1C5.1 20.1 5.4 20 5.6 19.8ZM16.9 8.5L19.7 5.7C20.1 5.3 20.1 4.7 19.7 4.3C19.3 3.9 18.7 3.9 18.3 4.3L15.5 7.1C15.1 7.5 15.1 8.1 15.5 8.5C15.7 8.7 16 8.8 16.2 8.8C16.4 8.8 16.8 8.7 16.9 8.5Z" fill="#222222"/>
</svg>
